<svg width="47" height="47" viewBox="0 0 47 47" fill="none" xmlns="http://www.w3.org/2000/svg">
<rect width="47" height="47" rx="23.5" fill="#44A40C"/>
<path d="M32.9018 25.0665H25.0685V32.8999C25.0685 33.7615 24.3635 34.4665 23.5018 34.4665C22.6402 34.4665 21.9352 33.7615 21.9352 32.8999V25.0665H14.1018C13.2402 25.0665 12.5352 24.3615 12.5352 23.4999C12.5352 22.6382 13.2402 21.9332 14.1018 21.9332H21.9352V14.0999C21.9352 13.2382 22.6402 12.5332 23.5018 12.5332C24.3635 12.5332 25.0685 13.2382 25.0685 14.0999V21.9332H32.9018C33.7635 21.9332 34.4685 22.6382 34.4685 23.4999C34.4685 24.3615 33.7635 25.0665 32.9018 25.0665Z" fill="white"/>
</svg>
