<svg width="44" height="44" viewBox="0 0 44 44" fill="none" xmlns="http://www.w3.org/2000/svg">
<path d="M0 22C0 9.84974 9.84974 0 22 0C34.1503 0 44 9.84974 44 22C44 34.1503 34.1503 44 22 44C9.84974 44 0 34.1503 0 22Z" fill="#F5F5F5" fill-opacity="0.2"/>
<path d="M28 23H23V28C23 28.55 22.55 29 22 29C21.45 29 21 28.55 21 28V23H16C15.45 23 15 22.55 15 22C15 21.45 15.45 21 16 21H21V16C21 15.45 21.45 15 22 15C22.55 15 23 15.45 23 16V21H28C28.55 21 29 21.45 29 22C29 22.55 28.55 23 28 23Z" fill="#F5F5F5"/>
</svg>
