<svg width="21" height="19" viewBox="0 0 21 19" fill="none" xmlns="http://www.w3.org/2000/svg">
<path d="M4.5 18.5C4.21667 18.5 3.97934 18.404 3.788 18.212C3.59667 18.02 3.50067 17.7827 3.5 17.5C3.49934 17.2173 3.59534 16.98 3.788 16.788C3.98067 16.596 4.218 16.5 4.5 16.5H16.5C16.7833 16.5 17.021 16.596 17.213 16.788C17.405 16.98 17.5007 17.2173 17.5 17.5C17.4993 17.7827 17.4033 18.0203 17.212 18.213C17.0207 18.4057 16.7833 18.5013 16.5 18.5H4.5ZM5.2 15C4.71667 15 4.28767 14.8417 3.913 14.525C3.53834 14.2083 3.309 13.8083 3.225 13.325L2.225 6.975C2.19167 6.975 2.15434 6.97934 2.113 6.988C2.07167 6.99667 2.034 7.00067 2 7C1.58334 7 1.22934 6.85434 0.938002 6.563C0.646669 6.27167 0.500669 5.91734 0.500002 5.5C0.499336 5.08267 0.645336 4.72867 0.938002 4.438C1.23067 4.14734 1.58467 4.00134 2 4C2.41534 3.99867 2.76967 4.14467 3.063 4.438C3.35634 4.73134 3.502 5.08534 3.5 5.5C3.5 5.61667 3.48734 5.725 3.462 5.825C3.43667 5.925 3.40767 6.01667 3.375 6.1L6.5 7.5L9.625 3.225C9.44167 3.09167 9.29167 2.91667 9.175 2.7C9.05834 2.48334 9 2.25 9 2C9 1.58334 9.146 1.229 9.438 0.937002C9.73 0.645002 10.084 0.499336 10.5 0.500002C10.916 0.500669 11.2703 0.646669 11.563 0.938002C11.8557 1.22934 12.0013 1.58334 12 2C12 2.25 11.9417 2.48334 11.825 2.7C11.7083 2.91667 11.5583 3.09167 11.375 3.225L14.5 7.5L17.625 6.1C17.5917 6.01667 17.5623 5.925 17.537 5.825C17.5117 5.725 17.4993 5.61667 17.5 5.5C17.5 5.08334 17.646 4.729 17.938 4.437C18.23 4.145 18.584 3.99934 19 4C19.416 4.00067 19.7703 4.14667 20.063 4.438C20.3557 4.72934 20.5013 5.08334 20.5 5.5C20.4987 5.91667 20.353 6.271 20.063 6.563C19.773 6.855 19.4187 7.00067 19 7C18.9667 7 18.9293 6.996 18.888 6.988C18.8467 6.98 18.809 6.97567 18.775 6.975L17.775 13.325C17.6917 13.8083 17.4627 14.2083 17.088 14.525C16.7133 14.8417 16.284 15 15.8 15H5.2Z" fill="#FFAB00"/>
</svg>
