<svg width="44" height="44" viewBox="0 0 44 44" fill="none" xmlns="http://www.w3.org/2000/svg">
<path d="M0 22C0 9.84974 9.84974 0 22 0C34.1503 0 44 9.84974 44 22C44 34.1503 34.1503 44 22 44C9.84974 44 0 34.1503 0 22Z" fill="#F5F5F5" fill-opacity="0.2"/>
<path d="M12.9985 27.461V30.501C12.9985 30.781 13.2185 31.001 13.4985 31.001H16.5385C16.6685 31.001 16.7985 30.951 16.8885 30.851L27.8085 19.941L24.0585 16.191L13.1485 27.101C13.0485 27.201 12.9985 27.321 12.9985 27.461ZM30.7085 17.041C31.0985 16.651 31.0985 16.021 30.7085 15.631L28.3685 13.291C27.9785 12.901 27.3485 12.901 26.9585 13.291L25.1285 15.121L28.8785 18.871L30.7085 17.041Z" fill="#F5F5F5"/>
</svg>
