<svg width="49" height="48" viewBox="0 0 49 48" fill="none" xmlns="http://www.w3.org/2000/svg">
<path d="M25.3495 15.4121L20.3903 20.5566C20.059 20.9002 19.8711 21.3738 19.8711 21.8659V31.1428C19.8711 32.1642 20.6767 33 21.6614 33H29.718C30.4341 33 31.0787 32.5543 31.3651 31.8764L34.2834 24.8096C35.0353 22.971 33.7373 20.928 31.8127 20.928H26.755L27.6054 16.675C27.6949 16.2107 27.5606 15.7371 27.2384 15.4028C26.7102 14.8642 25.8687 14.8642 25.3495 15.4121ZM16.2904 33C17.275 33 18.0807 32.1642 18.0807 31.1428V23.7139C18.0807 22.6924 17.275 21.8566 16.2904 21.8566C15.3057 21.8566 14.5 22.6924 14.5 23.7139V31.1428C14.5 32.1642 15.3057 33 16.2904 33Z" fill="white"/>
</svg>
