<svg width="11" height="10" viewBox="0 0 11 10" fill="none" xmlns="http://www.w3.org/2000/svg">
<path d="M1.59815 3.29789H7.87266C8.21776 3.29789 8.50011 3.58024 8.50011 3.92534C8.50011 4.27044 8.21776 4.55279 7.87266 4.55279H1.59815C1.25306 4.55279 0.970703 4.27044 0.970703 3.92534C0.970703 3.58024 1.25306 3.29789 1.59815 3.29789ZM1.59815 0.788086H7.87266C8.21776 0.788086 8.50011 1.07044 8.50011 1.41554C8.50011 1.76064 8.21776 2.04299 7.87266 2.04299H1.59815C1.25306 2.04299 0.970703 1.76064 0.970703 1.41554C0.970703 1.07044 1.25306 0.788086 1.59815 0.788086ZM1.59815 5.80769H5.36286C5.70796 5.80769 5.99031 6.09005 5.99031 6.43514C5.99031 6.78024 5.70796 7.0626 5.36286 7.0626H1.59815C1.25306 7.0626 0.970703 6.78024 0.970703 6.43514C0.970703 6.09005 1.25306 5.80769 1.59815 5.80769ZM7.24521 6.35985V9.01397C7.24521 9.25867 7.50874 9.40926 7.72208 9.28377L9.93698 7.95358C10.1378 7.83436 10.1378 7.53946 9.93698 7.41397L7.72208 6.08377C7.50874 5.96456 7.24521 6.11515 7.24521 6.35985Z" fill="#F5F5F5"/>
</svg>
