<svg width="49" height="48" viewBox="0 0 49 48" fill="none" xmlns="http://www.w3.org/2000/svg">
<path d="M25.5 21H15.5C14.95 21 14.5 21.45 14.5 22C14.5 22.55 14.95 23 15.5 23H25.5C26.05 23 26.5 22.55 26.5 22C26.5 21.45 26.05 21 25.5 21ZM25.5 17H15.5C14.95 17 14.5 17.45 14.5 18C14.5 18.55 14.95 19 15.5 19H25.5C26.05 19 26.5 18.55 26.5 18C26.5 17.45 26.05 17 25.5 17ZM30.5 25V22C30.5 21.45 30.05 21 29.5 21C28.95 21 28.5 21.45 28.5 22V25H25.5C24.95 25 24.5 25.45 24.5 26C24.5 26.55 24.95 27 25.5 27H28.5V30C28.5 30.55 28.95 31 29.5 31C30.05 31 30.5 30.55 30.5 30V27H33.5C34.05 27 34.5 26.55 34.5 26C34.5 25.45 34.05 25 33.5 25H30.5ZM15.5 27H21.5C22.05 27 22.5 26.55 22.5 26C22.5 25.45 22.05 25 21.5 25H15.5C14.95 25 14.5 25.45 14.5 26C14.5 26.55 14.95 27 15.5 27Z" fill="white"/>
</svg>
