<svg width="49" height="48" viewBox="0 0 49 48" fill="none" xmlns="http://www.w3.org/2000/svg">
<path d="M30.5 28.12C29.74 28.12 29.06 28.42 28.54 28.89L21.41 24.74C21.46 24.51 21.5 24.28 21.5 24.04C21.5 23.8 21.46 23.57 21.41 23.34L28.46 19.23C29 19.73 29.71 20.04 30.5 20.04C32.16 20.04 33.5 18.7 33.5 17.04C33.5 15.38 32.16 14.04 30.5 14.04C28.84 14.04 27.5 15.38 27.5 17.04C27.5 17.28 27.54 17.51 27.59 17.74L20.54 21.85C20 21.35 19.29 21.04 18.5 21.04C16.84 21.04 15.5 22.38 15.5 24.04C15.5 25.7 16.84 27.04 18.5 27.04C19.29 27.04 20 26.73 20.54 26.23L27.66 30.39C27.61 30.6 27.58 30.82 27.58 31.04C27.58 32.65 28.89 33.96 30.5 33.96C32.11 33.96 33.42 32.65 33.42 31.04C33.42 29.43 32.11 28.12 30.5 28.12Z" fill="#F5F5F5"/>
</svg>
