<svg width="25" height="26" viewBox="0 0 25 26" fill="none" xmlns="http://www.w3.org/2000/svg">
<path d="M3.07334 6.49984C2.50986 6.49984 2.04883 6.98734 2.04883 7.58317V21.6665C2.04883 22.8582 2.97089 23.8332 4.09785 23.8332H17.4165C17.98 23.8332 18.441 23.3457 18.441 22.7498C18.441 22.154 17.98 21.6665 17.4165 21.6665H5.12236C4.55888 21.6665 4.09785 21.179 4.09785 20.5832V7.58317C4.09785 6.98734 3.63682 6.49984 3.07334 6.49984ZM20.49 2.1665H8.19589C7.06893 2.1665 6.14687 3.1415 6.14687 4.33317V17.3332C6.14687 18.5248 7.06893 19.4998 8.19589 19.4998H20.49C21.617 19.4998 22.539 18.5248 22.539 17.3332V4.33317C22.539 3.1415 21.617 2.1665 20.49 2.1665ZM12.2939 15.7082V5.95817L17.898 10.3998C18.1746 10.6165 18.1746 11.0498 17.898 11.2665L12.2939 15.7082Z" fill="#F5F5F5"/>
</svg>
